<?xml version="1.0" encoding="UTF-8" standalone="no"?>
<!DOCTYPE svg PUBLIC "-//W3C//DTD SVG 1.1//EN"
 "http://www.w3.org/Graphics/SVG/1.1/DTD/svg11.dtd">
<!-- Generated by graphviz version 2.38.0 (20140413.2041)
 -->
<!-- Title: BalsamiqFlowOverview Pages: 1 -->
<svg width="544pt" height="201pt"
 viewBox="0.00 0.00 543.84 200.80" xmlns="http://www.w3.org/2000/svg" xmlns:xlink="http://www.w3.org/1999/xlink">
<g id="graph0" class="graph" transform="scale(1 1) rotate(0) translate(4 196.802)">
<title>BalsamiqFlowOverview</title>
<polygon fill="white" stroke="none" points="-4,4 -4,-196.802 539.842,-196.802 539.842,4 -4,4"/>
<!-- login -->
<g id="node1" class="node"><title>login</title>
<polygon fill="#ccd1ff" stroke="#ccd1ff" points="54,-113.002 0,-113.002 0,-77.0015 54,-77.0015 54,-113.002"/>
<text text-anchor="middle" x="27" y="-90.8015" font-family="Times New Roman,serif" font-size="14.00">login</text>
</g>
<!-- home -->
<g id="node2" class="node"><title>home</title>
<polygon fill="#ccd1ff" stroke="#ccd1ff" points="354.351,-173.002 300.351,-173.002 300.351,-137.002 354.351,-137.002 354.351,-173.002"/>
<text text-anchor="middle" x="327.351" y="-150.802" font-family="Times New Roman,serif" font-size="14.00">home</text>
</g>
<!-- login&#45;&gt;home -->
<g id="edge1" class="edge"><title>login&#45;&gt;home</title>
<path fill="none" stroke="black" d="M36.1049,-113.062C43.3492,-126.785 55.3919,-144.673 72,-153.002 142.536,-188.374 238.526,-175.341 290.07,-164.242"/>
<polygon fill="black" stroke="black" points="291.08,-167.603 300.067,-161.993 289.543,-160.774 291.08,-167.603"/>
<text text-anchor="middle" x="176.182" y="-180.202" font-family="Times New Roman,serif" font-size="14.00">Login</text>
</g>
<!-- register -->
<g id="node3" class="node"><title>register</title>
<polygon fill="#ccd1ff" stroke="#ccd1ff" points="356.328,-93.0015 298.375,-93.0015 298.375,-57.0015 356.328,-57.0015 356.328,-93.0015"/>
<text text-anchor="middle" x="327.351" y="-70.8015" font-family="Times New Roman,serif" font-size="14.00">register</text>
</g>
<!-- login&#45;&gt;register -->
<g id="edge2" class="edge"><title>login&#45;&gt;register</title>
<path fill="none" stroke="black" d="M54.2152,-93.2442C107.041,-89.703 226.485,-81.6961 288.058,-77.5685"/>
<polygon fill="black" stroke="black" points="288.395,-81.0539 298.139,-76.8928 287.927,-74.0695 288.395,-81.0539"/>
<text text-anchor="middle" x="176.182" y="-96.2015" font-family="Times New Roman,serif" font-size="14.00">No account? Register instead...</text>
</g>
<!-- home&#45;&gt;login -->
<g id="edge5" class="edge"><title>home&#45;&gt;login</title>
<path fill="none" stroke="black" d="M300.269,-140.01C293.933,-136.953 287.051,-134.096 280.363,-132.202 190.887,-106.852 162.33,-135.117 72,-113.002 69.2192,-112.321 66.3842,-111.494 63.5607,-110.573"/>
<polygon fill="black" stroke="black" points="64.6951,-107.262 54.1008,-107.157 62.3173,-113.846 64.6951,-107.262"/>
<text text-anchor="middle" x="176.182" y="-136.202" font-family="Times New Roman,serif" font-size="14.00">Log out</text>
</g>
<!-- register&#45;&gt;login -->
<g id="edge4" class="edge"><title>register&#45;&gt;login</title>
<path fill="none" stroke="black" d="M298.077,-62.9247C292.316,-60.9641 286.222,-59.2382 280.363,-58.2015 189.174,-42.0667 159.047,-26.5984 72,-58.2015 64.7923,-60.8184 57.9399,-65.1903 51.881,-70.0247"/>
<polygon fill="black" stroke="black" points="49.3765,-67.5653 44.152,-76.7825 53.9841,-72.8351 49.3765,-67.5653"/>
<text text-anchor="middle" x="176.182" y="-63.2015" font-family="Times New Roman,serif" font-size="14.00">Already have account? Login instead</text>
</g>
<!-- verif_message -->
<g id="node4" class="node"><title>verif_message</title>
<polygon fill="#ccd1ff" stroke="#ccd1ff" points="535.767,-61.0015 439.067,-61.0015 439.067,-25.0015 535.767,-25.0015 535.767,-61.0015"/>
<text text-anchor="middle" x="487.417" y="-38.8015" font-family="Times New Roman,serif" font-size="14.00">verif_message</text>
</g>
<!-- register&#45;&gt;verif_message -->
<g id="edge3" class="edge"><title>register&#45;&gt;verif_message</title>
<path fill="none" stroke="black" d="M356.61,-69.2806C376.668,-65.2199 404.293,-59.6274 428.903,-54.645"/>
<polygon fill="black" stroke="black" points="429.77,-58.0407 438.876,-52.626 428.381,-51.1799 429.77,-58.0407"/>
<text text-anchor="middle" x="397.666" y="-70.2015" font-family="Times New Roman,serif" font-size="14.00">Register</text>
</g>
<!-- verif_message&#45;&gt;login -->
<g id="edge6" class="edge"><title>verif_message&#45;&gt;login</title>
<path fill="none" stroke="black" d="M439.045,-28.4968C358.501,-6.69618 191.946,25.7757 72,-36.0015 58.6027,-42.9017 48.211,-55.9662 40.899,-68.0508"/>
<polygon fill="black" stroke="black" points="37.7308,-66.5456 35.909,-76.9827 43.8418,-69.9597 37.7308,-66.5456"/>
<text text-anchor="middle" x="327.351" y="-14.2015" font-family="Times New Roman,serif" font-size="14.00">Ok</text>
</g>
</g>
</svg>
