<svg width="576pt" height="138pt" viewBox="0.00 0.00 576.00 138.44" xmlns="http://www.w3.org/2000/svg" xmlns:xlink="http://www.w3.org/1999/xlink">
<g id="graph1" class="graph" transform="scale(0.463023 0.463023) rotate(0) translate(4 295)">
<title>BalsamiqFlowOverview</title>
<polygon fill="white" stroke="white" points="-4,5 -4,-295 1241,-295 1241,5 -4,5"></polygon>
<!-- modify_appointment -->
<g id="node1" class="node"><title>modify_appointment</title>
<polygon fill="none" stroke="black" points="408.934,-63 275.066,-63 275.066,-27 408.934,-27 408.934,-63"></polygon>
<text text-anchor="middle" x="342" y="-40.8" font-family="Times,serif" font-size="14.00">modify_appointment</text>
</g>
<!-- modify_appointment_step2 -->
<g id="node3" class="node"><title>modify_appointment_step2</title>
<polygon fill="none" stroke="black" points="671.983,-63 502.017,-63 502.017,-27 671.983,-27 671.983,-63"></polygon>
<text text-anchor="middle" x="587" y="-40.8" font-family="Times,serif" font-size="14.00">modify_appointment_step2</text>
</g>
<!-- modify_appointment&#45;&gt;modify_appointment_step2 -->
<g id="edge2" class="edge"><title>modify_appointment-&gt;modify_appointment_step2</title>
<path fill="none" stroke="black" d="M408.759,-45C434.297,-45 464.029,-45 491.763,-45"></path>
<polygon fill="black" stroke="black" points="491.879,-48.5001 501.879,-45 491.879,-41.5001 491.879,-48.5001"></polygon>
<text text-anchor="middle" x="464" y="-49.2" font-family="Times,serif" font-size="14.00">Next &gt;</text>
</g>
<!-- information_submitted -->
<g id="node15" class="node"><title>information_submitted</title>
<polygon fill="none" stroke="black" points="986.32,-89 841.68,-89 841.68,-53 986.32,-53 986.32,-89"></polygon>
<text text-anchor="middle" x="914" y="-66.8" font-family="Times,serif" font-size="14.00">information_submitted</text>
</g>
<!-- modify_appointment_step2&#45;&gt;information_submitted -->
<g id="edge14" class="edge"><title>modify_appointment_step2-&gt;information_submitted</title>
<path fill="none" stroke="black" d="M672.022,-41.5224C710.521,-40.9435 756.684,-41.6762 798,-46.2 808.992,-47.4035 820.478,-49.2072 831.758,-51.3034"></path>
<polygon fill="black" stroke="black" points="831.116,-54.7441 841.6,-53.2131 832.45,-47.8722 831.116,-54.7441"></polygon>
<text text-anchor="middle" x="744" y="-51.2" font-family="Times,serif" font-size="14.00">Done</text>
</g>
<!-- acces_schedule -->
<g id="node4" class="node"><title>acces_schedule</title>
<polygon fill="none" stroke="black" points="638.282,-183 535.718,-183 535.718,-147 638.282,-147 638.282,-183"></polygon>
<text text-anchor="middle" x="587" y="-160.8" font-family="Times,serif" font-size="14.00">acces_schedule</text>
</g>
<!-- select_doctor_from_department -->
<g id="node6" class="node"><title>select_doctor_from_department</title>
<polygon fill="none" stroke="black" points="1011.32,-156 816.677,-156 816.677,-120 1011.32,-120 1011.32,-156"></polygon>
<text text-anchor="middle" x="914" y="-133.8" font-family="Times,serif" font-size="14.00">select_doctor_from_department</text>
</g>
<!-- acces_schedule&#45;&gt;select_doctor_from_department -->
<g id="edge4" class="edge"><title>acces_schedule-&gt;select_doctor_from_department</title>
<path fill="none" stroke="black" d="M638.425,-160.811C683.165,-157.094 750.004,-151.541 806.534,-146.845"></path>
<polygon fill="black" stroke="black" points="806.922,-150.325 816.597,-146.009 806.342,-143.349 806.922,-150.325"></polygon>
<text text-anchor="middle" x="744" y="-161.2" font-family="Times,serif" font-size="14.00">Submit department</text>
</g>
<!-- show_schedule -->
<g id="node8" class="node"><title>show_schedule</title>
<polygon fill="none" stroke="black" points="1235.53,-156 1134.47,-156 1134.47,-120 1235.53,-120 1235.53,-156"></polygon>
<text text-anchor="middle" x="1185" y="-133.8" font-family="Times,serif" font-size="14.00">show_schedule</text>
</g>
<!-- select_doctor_from_department&#45;&gt;show_schedule -->
<g id="edge6" class="edge"><title>select_doctor_from_department-&gt;show_schedule</title>
<path fill="none" stroke="black" d="M1011.36,-138C1048.9,-138 1090.77,-138 1123.87,-138"></path>
<polygon fill="black" stroke="black" points="1124.29,-141.5 1134.29,-138 1124.29,-134.5 1124.29,-141.5"></polygon>
<text text-anchor="middle" x="1073" y="-142.2" font-family="Times,serif" font-size="14.00">Use this doctor</text>
</g>
<!-- patient_make_appointment -->
<g id="node9" class="node"><title>patient_make_appointment</title>
<polygon fill="none" stroke="black" points="426.413,-237 257.587,-237 257.587,-201 426.413,-201 426.413,-237"></polygon>
<text text-anchor="middle" x="342" y="-214.8" font-family="Times,serif" font-size="14.00">patient_make_appointment</text>
</g>
<!-- Make -->
<g id="node11" class="node"><title>Make</title>
<polygon fill="none" stroke="black" points="614,-237 560,-237 560,-201 614,-201 614,-237"></polygon>
<text text-anchor="middle" x="587" y="-214.8" font-family="Times,serif" font-size="14.00">Make</text>
</g>
<!-- patient_make_appointment&#45;&gt;Make -->
<g id="edge8" class="edge"><title>patient_make_appointment-&gt;Make</title>
<path fill="none" stroke="black" d="M426.287,-219C468.255,-219 516.996,-219 549.489,-219"></path>
<polygon fill="black" stroke="black" points="549.852,-222.5 559.852,-219 549.852,-215.5 549.852,-222.5"></polygon>
</g>
<!-- appointment -->
<g id="node12" class="node"><title>appointment</title>
<polygon fill="none" stroke="black" points="95.9916,-291 10.0084,-291 10.0084,-255 95.9916,-255 95.9916,-291"></polygon>
<text text-anchor="middle" x="53" y="-268.8" font-family="Times,serif" font-size="14.00">appointment</text>
</g>
<!-- online -->
<g id="node13" class="node"><title>online</title>
<polygon fill="none" stroke="black" points="666.861,-123 507.139,-123 507.139,-87 666.861,-87 666.861,-123"></polygon>
<text text-anchor="middle" x="587" y="-100.8" font-family="Times,serif" font-size="14.00">Make appointment online</text>
</g>
<!-- online&#45;&gt;select_doctor_from_department -->
<g id="edge12" class="edge"><title>online-&gt;select_doctor_from_department</title>
<path fill="none" stroke="black" d="M667.088,-113.031C708.924,-117.278 760.881,-122.554 806.242,-127.16"></path>
<polygon fill="black" stroke="black" points="806.112,-130.665 816.414,-128.193 806.819,-123.7 806.112,-130.665"></polygon>
<text text-anchor="middle" x="744" y="-130.2" font-family="Times,serif" font-size="14.00">Select doctor</text>
</g>
<!-- online&#45;&gt;information_submitted -->
<g id="edge10" class="edge"><title>online-&gt;information_submitted</title>
<path fill="none" stroke="black" d="M667.088,-96.7261C716.923,-91.5127 781.116,-84.7971 831.419,-79.5346"></path>
<polygon fill="black" stroke="black" points="832.027,-82.9902 841.609,-78.4686 831.299,-76.0282 832.027,-82.9902"></polygon>
<text text-anchor="middle" x="744" y="-99.2" font-family="Times,serif" font-size="14.00">Submit</text>
</g>
<!-- portal_patient -->
<g id="node18" class="node"><title>portal_patient</title>
<polygon fill="none" stroke="black" points="99.7577,-237 6.24229,-237 6.24229,-201 99.7577,-201 99.7577,-237"></polygon>
<text text-anchor="middle" x="53" y="-214.8" font-family="Times,serif" font-size="14.00">portal_patient</text>
</g>
<!-- portal_patient&#45;&gt;patient_make_appointment -->
<g id="edge16" class="edge"><title>portal_patient-&gt;patient_make_appointment</title>
<path fill="none" stroke="black" d="M99.7934,-219C139.473,-219 198.133,-219 247.669,-219"></path>
<polygon fill="black" stroke="black" points="247.768,-222.5 257.768,-219 247.768,-215.5 247.768,-222.5"></polygon>
<text text-anchor="middle" x="182" y="-223.2" font-family="Times,serif" font-size="14.00">Make appointment</text>
</g>
<!-- portal_secretary -->
<g id="node20" class="node"><title>portal_secretary</title>
<polygon fill="none" stroke="black" points="106.171,-90 -0.171338,-90 -0.171338,-54 106.171,-54 106.171,-90"></polygon>
<text text-anchor="middle" x="53" y="-67.8" font-family="Times,serif" font-size="14.00">portal_secretary</text>
</g>
<!-- portal_secretary&#45;&gt;modify_appointment -->
<g id="edge18" class="edge"><title>portal_secretary-&gt;modify_appointment</title>
<path fill="none" stroke="black" d="M106.307,-67.0792C150.701,-62.9027 214.979,-56.8556 265.046,-52.1455"></path>
<polygon fill="black" stroke="black" points="265.552,-55.6135 275.18,-51.1921 264.896,-48.6442 265.552,-55.6135"></polygon>
<text text-anchor="middle" x="182" y="-69.2" font-family="Times,serif" font-size="14.00">Modify appointment</text>
</g>
<!-- index -->
<g id="node22" class="node"><title>index</title>
<polygon fill="none" stroke="black" points="80,-36 26,-36 26,0 80,0 80,-36"></polygon>
<text text-anchor="middle" x="53" y="-13.8" font-family="Times,serif" font-size="14.00">index</text>
</g>
<!-- index&#45;&gt;modify_appointment -->
<g id="edge20" class="edge"><title>index-&gt;modify_appointment</title>
<path fill="none" stroke="black" d="M80.1974,-20.1185C116.219,-23.0686 183.057,-28.6763 240,-34.2 248.2,-34.9955 256.771,-35.8603 265.304,-36.7426"></path>
<polygon fill="black" stroke="black" points="264.971,-40.2267 275.28,-37.7834 265.697,-33.2645 264.971,-40.2267"></polygon>
<text text-anchor="middle" x="182" y="-39.2" font-family="Times,serif" font-size="14.00">Button</text>
</g>
</g>
</svg>