<?xml version="1.0" encoding="UTF-8" standalone="no"?>
<!DOCTYPE svg PUBLIC "-//W3C//DTD SVG 1.1//EN"
 "http://www.w3.org/Graphics/SVG/1.1/DTD/svg11.dtd">
<!-- Generated by graphviz version 2.28.0 (20110507.0327)
 -->
<!-- Title: BalsamiqFlowOverview Pages: 1 -->
<svg width="3128pt" height="411pt"
 viewBox="0.00 0.00 3128.00 410.71" xmlns="http://www.w3.org/2000/svg" xmlns:xlink="http://www.w3.org/1999/xlink">
<g id="graph1" class="graph" transform="scale(1 1) rotate(0) translate(4 406.706)">
<title>BalsamiqFlowOverview</title>
<polygon fill="white" stroke="white" points="-4,5 -4,-406.706 3125,-406.706 3125,5 -4,5"/>
<!-- select_doctor -->
<g id="node1" class="node"><title>select_doctor</title>
<polygon fill="#ccd1ff" stroke="#ccd1ff" points="2147.14,-242.906 2056.86,-242.906 2056.86,-206.906 2147.14,-206.906 2147.14,-242.906"/>
<text text-anchor="middle" x="2102" y="-220.706" font-family="Times,serif" font-size="14.00">select_doctor</text>
</g>
<!-- patient_make_appointment -->
<g id="node2" class="node"><title>patient_make_appointment</title>
<polygon fill="#ccd1ff" stroke="#ccd1ff" points="1425.41,-180.906 1256.59,-180.906 1256.59,-144.906 1425.41,-144.906 1425.41,-180.906"/>
<text text-anchor="middle" x="1341" y="-158.706" font-family="Times,serif" font-size="14.00">patient_make_appointment</text>
</g>
<!-- make_appointment_online -->
<g id="node4" class="node"><title>make_appointment_online</title>
<polygon fill="#ccd1ff" stroke="#ccd1ff" points="1819.81,-212.906 1654.19,-212.906 1654.19,-176.906 1819.81,-176.906 1819.81,-212.906"/>
<text text-anchor="middle" x="1737" y="-190.706" font-family="Times,serif" font-size="14.00">make_appointment_online</text>
</g>
<!-- patient_make_appointment&#45;&gt;make_appointment_online -->
<g id="edge2" class="edge"><title>patient_make_appointment&#45;&gt;make_appointment_online</title>
<path fill="none" stroke="black" d="M1425.48,-165.822C1484.41,-168.361 1565.18,-172.808 1636,-180.106 1638.69,-180.384 1641.42,-180.681 1644.17,-180.995"/>
<polygon fill="black" stroke="black" points="1643.87,-184.484 1654.21,-182.2 1644.7,-177.534 1643.87,-184.484"/>
<text text-anchor="middle" x="1549" y="-185.106" font-family="Times,serif" font-size="14.00">Make appointment on this date</text>
</g>
<!-- make_appointment_online&#45;&gt;select_doctor -->
<g id="edge6" class="edge"><title>make_appointment_online&#45;&gt;select_doctor</title>
<path fill="none" stroke="black" d="M1819.92,-201.676C1889.2,-207.402 1986.53,-215.446 2046.58,-220.409"/>
<polygon fill="black" stroke="black" points="2046.37,-223.903 2056.62,-221.239 2046.94,-216.927 2046.37,-223.903"/>
<text text-anchor="middle" x="1909" y="-219.106" font-family="Times,serif" font-size="14.00">Select doctor</text>
</g>
<!-- information_submitted -->
<g id="node6" class="node"><title>information_submitted</title>
<polygon fill="#ccd1ff" stroke="#ccd1ff" points="2174.32,-311.906 2029.68,-311.906 2029.68,-275.906 2174.32,-275.906 2174.32,-311.906"/>
<text text-anchor="middle" x="2102" y="-289.706" font-family="Times,serif" font-size="14.00">information_submitted</text>
</g>
<!-- make_appointment_online&#45;&gt;information_submitted -->
<g id="edge4" class="edge"><title>make_appointment_online&#45;&gt;information_submitted</title>
<path fill="none" stroke="black" d="M1785.41,-212.98C1796.78,-217.433 1808.86,-222.259 1820,-226.906 1828.08,-230.276 1829.69,-232.157 1838,-234.906 1897.68,-254.649 1967.15,-269.919 2019.7,-279.973"/>
<polygon fill="black" stroke="black" points="2019.17,-283.434 2029.64,-281.852 2020.47,-276.556 2019.17,-283.434"/>
<text text-anchor="middle" x="1909" y="-277.106" font-family="Times,serif" font-size="14.00">Submit</text>
</g>
<!-- admin_modify_appointment -->
<g id="node8" class="node"><title>admin_modify_appointment</title>
<polygon fill="#ccd1ff" stroke="#ccd1ff" points="1428.93,-320.906 1253.07,-320.906 1253.07,-284.906 1428.93,-284.906 1428.93,-320.906"/>
<text text-anchor="middle" x="1341" y="-298.706" font-family="Times,serif" font-size="14.00">admin_modify_appointment</text>
</g>
<!-- admin_modify_appointment&#45;&gt;select_doctor -->
<g id="edge12" class="edge"><title>admin_modify_appointment&#45;&gt;select_doctor</title>
<path fill="none" stroke="black" d="M1429.07,-293.959C1586.97,-277.732 1916.25,-243.892 2046.39,-230.519"/>
<polygon fill="black" stroke="black" points="2046.93,-233.982 2056.52,-229.478 2046.21,-227.019 2046.93,-233.982"/>
<text text-anchor="middle" x="1737" y="-275.106" font-family="Times,serif" font-size="14.00">Set doctor</text>
</g>
<!-- admin_modify_appointment&#45;&gt;information_submitted -->
<g id="edge10" class="edge"><title>admin_modify_appointment&#45;&gt;information_submitted</title>
<path fill="none" stroke="black" d="M1429.07,-301.874C1577.08,-300.119 1875.69,-296.578 2019.69,-294.871"/>
<polygon fill="black" stroke="black" points="2019.83,-298.369 2029.79,-294.751 2019.75,-291.37 2019.83,-298.369"/>
<text text-anchor="middle" x="1737" y="-304.106" font-family="Times,serif" font-size="14.00">Done</text>
</g>
<!-- admin_search_patient -->
<g id="node10" class="node"><title>admin_search_patient</title>
<polygon fill="#ccd1ff" stroke="#ccd1ff" points="1806.35,-154.906 1667.65,-154.906 1667.65,-118.906 1806.35,-118.906 1806.35,-154.906"/>
<text text-anchor="middle" x="1737" y="-132.706" font-family="Times,serif" font-size="14.00">admin_search_patient</text>
</g>
<!-- admin_modify_appointment&#45;&gt;admin_search_patient -->
<g id="edge8" class="edge"><title>admin_modify_appointment&#45;&gt;admin_search_patient</title>
<path fill="none" stroke="black" d="M1391.54,-284.901C1410.73,-275.517 1431.13,-262.118 1444,-243.906 1469.25,-208.168 1428.87,-175.699 1462,-147.106 1516.27,-100.259 1601.53,-105.006 1662.52,-116.852"/>
<polygon fill="black" stroke="black" points="1661.98,-120.313 1672.47,-118.889 1663.38,-113.455 1661.98,-120.313"/>
<text text-anchor="middle" x="1549" y="-152.106" font-family="Times,serif" font-size="14.00">Set patient</text>
</g>
<!-- admin_search_patient&#45;&gt;select_doctor -->
<g id="edge42" class="edge"><title>admin_search_patient&#45;&gt;select_doctor</title>
<path fill="none" stroke="black" d="M1806.48,-149.56C1876.63,-162.583 1976.01,-181.234 1980,-183.106 1989.38,-187.503 1988.78,-193.195 1998,-197.906 2013.06,-205.602 2030.52,-211.245 2046.73,-215.321"/>
<polygon fill="black" stroke="black" points="2046.1,-218.767 2056.63,-217.66 2047.71,-211.955 2046.1,-218.767"/>
<text text-anchor="middle" x="1909" y="-188.106" font-family="Times,serif" font-size="14.00">Linked to doctor</text>
</g>
<!-- doctor_patient_view_medical_file -->
<g id="node39" class="node"><title>doctor_patient_view_medical_file</title>
<polygon fill="#ccd1ff" stroke="#ccd1ff" points="2206.05,-188.906 1997.95,-188.906 1997.95,-152.906 2206.05,-152.906 2206.05,-188.906"/>
<text text-anchor="middle" x="2102" y="-166.706" font-family="Times,serif" font-size="14.00">doctor_patient_view_medical_file</text>
</g>
<!-- admin_search_patient&#45;&gt;doctor_patient_view_medical_file -->
<g id="edge40" class="edge"><title>admin_search_patient&#45;&gt;doctor_patient_view_medical_file</title>
<path fill="none" stroke="black" d="M1806.39,-132.541C1855.04,-130.58 1921.82,-130.214 1980,-138.106 1998.65,-140.637 2018.51,-145.201 2036.63,-150.136"/>
<polygon fill="black" stroke="black" points="2035.93,-153.574 2046.5,-152.905 2037.82,-146.834 2035.93,-153.574"/>
<text text-anchor="middle" x="1909" y="-143.106" font-family="Times,serif" font-size="14.00">View patient information</text>
</g>
<!-- portal_secretary -->
<g id="node13" class="node"><title>portal_secretary</title>
<polygon fill="#ccd1ff" stroke="#ccd1ff" points="106.171,-174.906 -0.171338,-174.906 -0.171338,-138.906 106.171,-138.906 106.171,-174.906"/>
<text text-anchor="middle" x="53" y="-152.706" font-family="Times,serif" font-size="14.00">portal_secretary</text>
</g>
<!-- patient_register -->
<g id="node14" class="node"><title>patient_register</title>
<polygon fill="#ccd1ff" stroke="#ccd1ff" points="104.577,-120.906 1.42277,-120.906 1.42277,-84.9065 104.577,-84.9065 104.577,-120.906"/>
<text text-anchor="middle" x="53" y="-98.7065" font-family="Times,serif" font-size="14.00">patient_register</text>
</g>
<!-- account_registered -->
<g id="node16" class="node"><title>account_registered</title>
<polygon fill="#ccd1ff" stroke="#ccd1ff" points="311.726,-120.906 190.274,-120.906 190.274,-84.9065 311.726,-84.9065 311.726,-120.906"/>
<text text-anchor="middle" x="251" y="-98.7065" font-family="Times,serif" font-size="14.00">account_registered</text>
</g>
<!-- patient_register&#45;&gt;account_registered -->
<g id="edge14" class="edge"><title>patient_register&#45;&gt;account_registered</title>
<path fill="none" stroke="black" d="M104.73,-102.906C127.659,-102.906 155.127,-102.906 179.976,-102.906"/>
<polygon fill="black" stroke="black" points="180.08,-106.407 190.08,-102.906 180.08,-99.4066 180.08,-106.407"/>
<text text-anchor="middle" x="148" y="-107.106" font-family="Times,serif" font-size="14.00">Register</text>
</g>
<!-- after_confirmation_mail -->
<g id="node18" class="node"><title>after_confirmation_mail</title>
<polygon fill="#ccd1ff" stroke="#ccd1ff" points="629.34,-120.906 476.66,-120.906 476.66,-84.9065 629.34,-84.9065 629.34,-120.906"/>
<text text-anchor="middle" x="553" y="-98.7065" font-family="Times,serif" font-size="14.00">after_confirmation_mail</text>
</g>
<!-- account_registered&#45;&gt;after_confirmation_mail -->
<g id="edge16" class="edge"><title>account_registered&#45;&gt;after_confirmation_mail</title>
<path fill="none" stroke="black" d="M311.988,-102.906C356.22,-102.906 417.023,-102.906 466.361,-102.906"/>
<polygon fill="black" stroke="black" points="466.386,-106.407 476.386,-102.906 466.386,-99.4066 466.386,-106.407"/>
<text text-anchor="middle" x="394" y="-107.106" font-family="Times,serif" font-size="14.00">click confirmation link</text>
</g>
<!-- account_registered&#45;&gt;after_confirmation_mail -->
<g id="edge18" class="edge"><title>account_registered&#45;&gt;after_confirmation_mail</title>
<path fill="none" stroke="black" d="M311.728,-85.2961C317.856,-83.9963 324.025,-82.8895 330,-82.1065 386.407,-74.7147 401.448,-75.9244 458,-82.1065 461.098,-82.4452 464.244,-82.8449 467.414,-83.295"/>
<polygon fill="black" stroke="black" points="467.17,-86.7993 477.591,-84.8906 468.254,-79.8838 467.17,-86.7993"/>
<text text-anchor="middle" x="394" y="-87.1065" font-family="Times,serif" font-size="14.00">confirm</text>
</g>
<!-- patient_login -->
<g id="node21" class="node"><title>patient_login</title>
<polygon fill="#ccd1ff" stroke="#ccd1ff" points="819.882,-120.906 730.118,-120.906 730.118,-84.9065 819.882,-84.9065 819.882,-120.906"/>
<text text-anchor="middle" x="775" y="-98.7065" font-family="Times,serif" font-size="14.00">patient_login</text>
</g>
<!-- after_confirmation_mail&#45;&gt;patient_login -->
<g id="edge20" class="edge"><title>after_confirmation_mail&#45;&gt;patient_login</title>
<path fill="none" stroke="black" d="M629.404,-102.906C659.073,-102.906 692.481,-102.906 719.705,-102.906"/>
<polygon fill="black" stroke="black" points="719.815,-106.407 729.815,-102.906 719.815,-99.4066 719.815,-106.407"/>
<text text-anchor="middle" x="680" y="-107.106" font-family="Times,serif" font-size="14.00">Go to login</text>
</g>
<!-- patient_portal -->
<g id="node23" class="node"><title>patient_portal</title>
<polygon fill="#ccd1ff" stroke="#ccd1ff" points="987.758,-120.906 894.242,-120.906 894.242,-84.9065 987.758,-84.9065 987.758,-120.906"/>
<text text-anchor="middle" x="941" y="-98.7065" font-family="Times,serif" font-size="14.00">patient_portal</text>
</g>
<!-- patient_login&#45;&gt;patient_portal -->
<g id="edge22" class="edge"><title>patient_login&#45;&gt;patient_portal</title>
<path fill="none" stroke="black" d="M819.949,-102.906C839.681,-102.906 863.19,-102.906 884.153,-102.906"/>
<polygon fill="black" stroke="black" points="884.211,-106.407 894.211,-102.906 884.211,-99.4066 884.211,-106.407"/>
<text text-anchor="middle" x="857" y="-107.106" font-family="Times,serif" font-size="14.00">Log in</text>
</g>
<!-- patient_portal&#45;&gt;patient_make_appointment -->
<g id="edge24" class="edge"><title>patient_portal&#45;&gt;patient_make_appointment</title>
<path fill="none" stroke="black" d="M987.959,-115.98C993.996,-117.442 1000.13,-118.8 1006,-119.906 1100.06,-137.618 1125.14,-131.318 1220,-144.106 1228.65,-145.273 1237.65,-146.555 1246.65,-147.883"/>
<polygon fill="black" stroke="black" points="1246.38,-151.382 1256.79,-149.399 1247.42,-144.459 1246.38,-151.382"/>
<text text-anchor="middle" x="1113" y="-149.106" font-family="Times,serif" font-size="14.00">Make appointment</text>
</g>
<!-- patient_portal&#45;&gt;patient_make_appointment -->
<g id="edge28" class="edge"><title>patient_portal&#45;&gt;patient_make_appointment</title>
<path fill="none" stroke="black" d="M955.755,-121.149C967.405,-134.975 985.458,-152.912 1006,-160.906 1083,-190.872 1177.76,-188.099 1246.65,-179.749"/>
<polygon fill="black" stroke="black" points="1247.15,-183.214 1256.63,-178.48 1246.26,-176.27 1247.15,-183.214"/>
<text text-anchor="middle" x="1113" y="-190.106" font-family="Times,serif" font-size="14.00">View schedule</text>
</g>
<!-- patient_view_medical_file -->
<g id="node26" class="node"><title>patient_view_medical_file</title>
<polygon fill="#ccd1ff" stroke="#ccd1ff" points="1423.79,-100.906 1258.21,-100.906 1258.21,-64.9065 1423.79,-64.9065 1423.79,-100.906"/>
<text text-anchor="middle" x="1341" y="-78.7065" font-family="Times,serif" font-size="14.00">patient_view_medical_file</text>
</g>
<!-- patient_portal&#45;&gt;patient_view_medical_file -->
<g id="edge26" class="edge"><title>patient_portal&#45;&gt;patient_view_medical_file</title>
<path fill="none" stroke="black" d="M964.869,-84.8351C976.482,-76.799 991.233,-68.233 1006,-64.1065 1088.1,-41.1629 1185.86,-50.7098 1254.32,-63.032"/>
<polygon fill="black" stroke="black" points="1253.74,-66.4828 1264.21,-64.8667 1255.01,-59.6004 1253.74,-66.4828"/>
<text text-anchor="middle" x="1113" y="-69.1065" font-family="Times,serif" font-size="14.00">View my medical file</text>
</g>
<!-- vaccinations_needed_for_country -->
<g id="node29" class="node"><title>vaccinations_needed_for_country</title>
<polygon fill="#ccd1ff" stroke="#ccd1ff" points="1443.71,-40.9065 1238.29,-40.9065 1238.29,-4.90647 1443.71,-4.90647 1443.71,-40.9065"/>
<text text-anchor="middle" x="1341" y="-18.7065" font-family="Times,serif" font-size="14.00">vaccinations_needed_for_country</text>
</g>
<!-- patient_portal&#45;&gt;vaccinations_needed_for_country -->
<g id="edge30" class="edge"><title>patient_portal&#45;&gt;vaccinations_needed_for_country</title>
<path fill="none" stroke="black" d="M951.952,-84.6651C962.692,-67.0649 981.589,-41.4677 1006,-30.1065 1076.02,2.48268 1163.57,3.11607 1231.47,-3.77926"/>
<polygon fill="black" stroke="black" points="1231.44,-7.29717 1241.76,-4.89738 1232.2,-0.33809 1231.44,-7.29717"/>
<text text-anchor="middle" x="1113" y="-35.1065" font-family="Times,serif" font-size="14.00">View vaccinations needed for country</text>
</g>
<!-- patient_view_medical_file&#45;&gt;patient_portal -->
<g id="edge32" class="edge"><title>patient_view_medical_file&#45;&gt;patient_portal</title>
<path fill="none" stroke="black" d="M1258.17,-87.0186C1180.52,-90.9206 1065.9,-96.6803 998.104,-100.087"/>
<polygon fill="black" stroke="black" points="997.856,-96.5951 988.044,-100.593 998.208,-103.586 997.856,-96.5951"/>
<text text-anchor="middle" x="1113" y="-104.106" font-family="Times,serif" font-size="14.00">&lt;&#45; Back</text>
</g>
<!-- patient_view_schedule -->
<g id="node31" class="node"><title>patient_view_schedule</title>
<polygon fill="#ccd1ff" stroke="#ccd1ff" points="1413.29,-234.906 1268.71,-234.906 1268.71,-198.906 1413.29,-198.906 1413.29,-234.906"/>
<text text-anchor="middle" x="1341" y="-212.706" font-family="Times,serif" font-size="14.00">patient_view_schedule</text>
</g>
<!-- patient_view_schedule&#45;&gt;make_appointment_online -->
<g id="edge34" class="edge"><title>patient_view_schedule&#45;&gt;make_appointment_online</title>
<path fill="none" stroke="black" d="M1413.35,-212.922C1478.03,-209.311 1573.72,-203.968 1644.1,-200.038"/>
<polygon fill="black" stroke="black" points="1644.5,-203.521 1654.29,-199.469 1644.11,-196.532 1644.5,-203.521"/>
<text text-anchor="middle" x="1549" y="-214.106" font-family="Times,serif" font-size="14.00">Edit this appointment</text>
</g>
<!-- doctor_portal -->
<g id="node33" class="node"><title>doctor_portal</title>
<polygon fill="#ccd1ff" stroke="#ccd1ff" points="2781.92,-261.906 2690.08,-261.906 2690.08,-225.906 2781.92,-225.906 2781.92,-261.906"/>
<text text-anchor="middle" x="2736" y="-239.706" font-family="Times,serif" font-size="14.00">doctor_portal</text>
</g>
<!-- doctor_view_doctor_schedule -->
<g id="node35" class="node"><title>doctor_view_doctor_schedule</title>
<polygon fill="#ccd1ff" stroke="#ccd1ff" points="3119.22,-346.906 2934.78,-346.906 2934.78,-310.906 3119.22,-310.906 3119.22,-346.906"/>
<text text-anchor="middle" x="3027" y="-324.706" font-family="Times,serif" font-size="14.00">doctor_view_doctor_schedule</text>
</g>
<!-- doctor_portal&#45;&gt;doctor_view_doctor_schedule -->
<g id="edge36" class="edge"><title>doctor_portal&#45;&gt;doctor_view_doctor_schedule</title>
<path fill="none" stroke="black" d="M2782.04,-258.368C2788.07,-260.257 2794.18,-262.146 2800,-263.906 2850.5,-279.181 2907.6,-295.598 2951.78,-308.111"/>
<polygon fill="black" stroke="black" points="2950.99,-311.527 2961.57,-310.881 2952.9,-304.791 2950.99,-311.527"/>
<text text-anchor="middle" x="2858" y="-301.106" font-family="Times,serif" font-size="14.00">See Schedule</text>
</g>
<!-- doctor_make_list_of_patients -->
<g id="node37" class="node"><title>doctor_make_list_of_patients</title>
<polygon fill="#ccd1ff" stroke="#ccd1ff" points="3118.41,-261.906 2935.59,-261.906 2935.59,-225.906 3118.41,-225.906 3118.41,-261.906"/>
<text text-anchor="middle" x="3027" y="-239.706" font-family="Times,serif" font-size="14.00">doctor_make_list_of_patients</text>
</g>
<!-- doctor_portal&#45;&gt;doctor_make_list_of_patients -->
<g id="edge38" class="edge"><title>doctor_portal&#45;&gt;doctor_make_list_of_patients</title>
<path fill="none" stroke="black" d="M2781.84,-243.906C2820.11,-243.906 2876.56,-243.906 2925.54,-243.906"/>
<polygon fill="black" stroke="black" points="2925.55,-247.407 2935.55,-243.906 2925.55,-240.407 2925.55,-247.407"/>
<text text-anchor="middle" x="2858" y="-248.106" font-family="Times,serif" font-size="14.00">Make list of patients</text>
</g>
<!-- doctor_view_doctor_schedule&#45;&gt;admin_modify_appointment -->
<g id="edge54" class="edge"><title>doctor_view_doctor_schedule&#45;&gt;admin_modify_appointment</title>
<path fill="none" stroke="black" d="M2969.08,-346.942C2911.26,-363.641 2818.82,-385.906 2737,-385.906 1736,-385.906 1736,-385.906 1736,-385.906 1616,-385.906 1479.78,-348.588 1403.04,-323.998"/>
<polygon fill="black" stroke="black" points="1404.12,-320.668 1393.53,-320.916 1401.97,-327.327 1404.12,-320.668"/>
<text text-anchor="middle" x="2313" y="-390.106" font-family="Times,serif" font-size="14.00">Edit this appointment</text>
</g>
<!-- doctor_patient_view_medical_file&#45;&gt;doctor_portal -->
<g id="edge44" class="edge"><title>doctor_patient_view_medical_file&#45;&gt;doctor_portal</title>
<path fill="none" stroke="black" d="M2206.17,-168.191C2309.04,-167.507 2471.01,-171.927 2608,-200.106 2632.99,-205.246 2659.8,-213.99 2682.33,-222.319"/>
<polygon fill="black" stroke="black" points="2681.11,-225.599 2691.7,-225.851 2683.58,-219.049 2681.11,-225.599"/>
<text text-anchor="middle" x="2514" y="-205.106" font-family="Times,serif" font-size="14.00">&lt;&#45; Back</text>
</g>
<!-- doctor_view_patient_schedule -->
<g id="node43" class="node"><title>doctor_view_patient_schedule</title>
<polygon fill="#ccd1ff" stroke="#ccd1ff" points="2607.56,-261.906 2420.44,-261.906 2420.44,-225.906 2607.56,-225.906 2607.56,-261.906"/>
<text text-anchor="middle" x="2514" y="-239.706" font-family="Times,serif" font-size="14.00">doctor_view_patient_schedule</text>
</g>
<!-- doctor_patient_view_medical_file&#45;&gt;doctor_view_patient_schedule -->
<g id="edge46" class="edge"><title>doctor_patient_view_medical_file&#45;&gt;doctor_view_patient_schedule</title>
<path fill="none" stroke="black" d="M2189.78,-188.929C2195.47,-191.529 2200.94,-194.503 2206,-197.906 2217.07,-205.345 2212.31,-215.495 2224,-221.906 2280.19,-252.721 2351.99,-258.322 2409.97,-256.168"/>
<polygon fill="black" stroke="black" points="2410.43,-259.651 2420.26,-255.7 2410.11,-252.659 2410.43,-259.651"/>
<text text-anchor="middle" x="2313" y="-261.106" font-family="Times,serif" font-size="14.00">view schdule, view medical file</text>
</g>
<!-- doctor_view_patient_schedule&#45;&gt;admin_modify_appointment -->
<g id="edge48" class="edge"><title>doctor_view_patient_schedule&#45;&gt;admin_modify_appointment</title>
<path fill="none" stroke="black" d="M2459.74,-261.951C2399.14,-281.374 2296.8,-310.84 2206,-320.906 1929.13,-351.602 1599.38,-328.303 1439.1,-313.185"/>
<polygon fill="black" stroke="black" points="1439.08,-309.667 1428.79,-312.202 1438.41,-316.635 1439.08,-309.667"/>
<text text-anchor="middle" x="1909" y="-341.106" font-family="Times,serif" font-size="14.00">Edit this appointment</text>
</g>
<!-- doctor_view_patient_schedule&#45;&gt;doctor_portal -->
<g id="edge52" class="edge"><title>doctor_view_patient_schedule&#45;&gt;doctor_portal</title>
<path fill="none" stroke="black" d="M2607.66,-243.906C2632.3,-243.906 2658.12,-243.906 2680.02,-243.906"/>
<polygon fill="black" stroke="black" points="2680.12,-247.407 2690.12,-243.906 2680.12,-240.407 2680.12,-247.407"/>
<text text-anchor="middle" x="2649" y="-248.106" font-family="Times,serif" font-size="14.00">&lt;&#45; Back</text>
</g>
<!-- doctor_view_patient_schedule&#45;&gt;doctor_patient_view_medical_file -->
<g id="edge50" class="edge"><title>doctor_view_patient_schedule&#45;&gt;doctor_patient_view_medical_file</title>
<path fill="none" stroke="black" d="M2473.75,-225.812C2452.87,-216.952 2426.51,-206.957 2402,-201.106 2392.75,-198.899 2297.1,-189.414 2216.43,-181.655"/>
<polygon fill="black" stroke="black" points="2216.46,-178.142 2206.17,-180.67 2215.79,-185.11 2216.46,-178.142"/>
<text text-anchor="middle" x="2313" y="-206.106" font-family="Times,serif" font-size="14.00">view schdule, view medical file</text>
</g>
</g>
</svg>

