<?xml version="1.0" encoding="UTF-8" standalone="no"?>
<!DOCTYPE svg PUBLIC "-//W3C//DTD SVG 1.1//EN"
 "http://www.w3.org/Graphics/SVG/1.1/DTD/svg11.dtd">
<!-- Generated by graphviz version 2.38.0 (20140413.2041)
 -->
<!-- Title: BalsamiqFlowOverview Pages: 1 -->
<svg width="2806pt" height="528pt"
 viewBox="0.00 0.00 2806.00 528.00" xmlns="http://www.w3.org/2000/svg" xmlns:xlink="http://www.w3.org/1999/xlink">
<g id="graph0" class="graph" transform="scale(1 1) rotate(0) translate(4 524)">
<title>BalsamiqFlowOverview</title>
<polygon fill="white" stroke="none" points="-4,4 -4,-524 2802,-524 2802,4 -4,4"/>
<!-- patient_portal -->
<g id="node1" class="node"><title>patient_portal</title>
<polygon fill="#ccd1ff" stroke="#ccd1ff" points="572,-431 479,-431 479,-395 572,-395 572,-431"/>
<text text-anchor="middle" x="525.5" y="-409.3" font-family="Times New Roman,serif" font-size="14.00">patient_portal</text>
</g>
<!-- make_appointment -->
<g id="node2" class="node"><title>make_appointment</title>
<polygon fill="#ccd1ff" stroke="#ccd1ff" points="1030.5,-261 908.5,-261 908.5,-225 1030.5,-225 1030.5,-261"/>
<text text-anchor="middle" x="969.5" y="-239.3" font-family="Times New Roman,serif" font-size="14.00">make_appointment</text>
</g>
<!-- patient_portal&#45;&gt;make_appointment -->
<g id="edge1" class="edge"><title>patient_portal&#45;&gt;make_appointment</title>
<path fill="none" stroke="black" d="M552.527,-394.868C574.125,-380.432 606.042,-360.479 636,-347 723.402,-307.676 829.995,-277.188 898.535,-259.663"/>
<polygon fill="black" stroke="black" points="899.531,-263.022 908.365,-257.172 897.811,-256.236 899.531,-263.022"/>
<text text-anchor="middle" x="742" y="-350.8" font-family="Times New Roman,serif" font-size="14.00">Make appointment</text>
</g>
<!-- view_patient_basic_info -->
<g id="node3" class="node"><title>view_patient_basic_info</title>
<polygon fill="#ccd1ff" stroke="#ccd1ff" points="2798,-346 2646,-346 2646,-310 2798,-310 2798,-346"/>
<text text-anchor="middle" x="2722" y="-324.3" font-family="Times New Roman,serif" font-size="14.00">view_patient_basic_info</text>
</g>
<!-- patient_portal&#45;&gt;view_patient_basic_info -->
<g id="edge2" class="edge"><title>patient_portal&#45;&gt;view_patient_basic_info</title>
<path fill="none" stroke="black" d="M557.013,-431.2C578.386,-443.076 608.02,-457.84 636,-466 778.84,-507.658 819.709,-505 968.5,-505 968.5,-505 968.5,-505 2258.5,-505 2428.07,-505 2610.88,-399.937 2685.88,-351.7"/>
<polygon fill="black" stroke="black" points="2688,-354.494 2694.48,-346.11 2684.19,-348.624 2688,-354.494"/>
<text text-anchor="middle" x="1521.5" y="-508.8" font-family="Times New Roman,serif" font-size="14.00">View my basic info</text>
</g>
<!-- vaccinations_needed_for_country -->
<g id="node4" class="node"><title>vaccinations_needed_for_country</title>
<polygon fill="#ccd1ff" stroke="#ccd1ff" points="1073,-477 866,-477 866,-441 1073,-441 1073,-477"/>
<text text-anchor="middle" x="969.5" y="-455.3" font-family="Times New Roman,serif" font-size="14.00">vaccinations_needed_for_country</text>
</g>
<!-- patient_portal&#45;&gt;vaccinations_needed_for_country -->
<g id="edge3" class="edge"><title>patient_portal&#45;&gt;vaccinations_needed_for_country</title>
<path fill="none" stroke="black" d="M572.013,-419.142C591.675,-421.712 614.954,-424.642 636,-427 709.032,-435.181 791.233,-443.104 855.632,-449.019"/>
<polygon fill="black" stroke="black" points="855.533,-452.525 865.81,-449.951 856.171,-445.554 855.533,-452.525"/>
<text text-anchor="middle" x="742" y="-450.8" font-family="Times New Roman,serif" font-size="14.00">View vaccinations needed for country</text>
</g>
<!-- view_patient_schedule -->
<g id="node5" class="node"><title>view_patient_schedule</title>
<polygon fill="#ccd1ff" stroke="#ccd1ff" points="2329,-313 2186,-313 2186,-277 2329,-277 2329,-313"/>
<text text-anchor="middle" x="2257.5" y="-291.3" font-family="Times New Roman,serif" font-size="14.00">view_patient_schedule</text>
</g>
<!-- patient_portal&#45;&gt;view_patient_schedule -->
<g id="edge4" class="edge"><title>patient_portal&#45;&gt;view_patient_schedule</title>
<path fill="none" stroke="black" d="M572.314,-413C652.578,-413 823.852,-413 968.5,-413 968.5,-413 968.5,-413 1789.5,-413 1867.73,-413 2081.07,-349.968 2190.23,-316.04"/>
<polygon fill="black" stroke="black" points="2191.32,-319.367 2199.82,-313.05 2189.23,-312.684 2191.32,-319.367"/>
<text text-anchor="middle" x="1397.5" y="-416.8" font-family="Times New Roman,serif" font-size="14.00">View my schedule</text>
</g>
<!-- view_patient_medical_file -->
<g id="node6" class="node"><title>view_patient_medical_file</title>
<polygon fill="#ccd1ff" stroke="#ccd1ff" points="1869,-296 1708,-296 1708,-260 1869,-260 1869,-296"/>
<text text-anchor="middle" x="1788.5" y="-274.3" font-family="Times New Roman,serif" font-size="14.00">view_patient_medical_file</text>
</g>
<!-- patient_portal&#45;&gt;view_patient_medical_file -->
<g id="edge5" class="edge"><title>patient_portal&#45;&gt;view_patient_medical_file</title>
<path fill="none" stroke="black" d="M572.241,-406.45C591.841,-403.826 615.01,-400.965 636,-399 1052.7,-359.995 1164.16,-417.448 1576,-343 1629.66,-333.301 1688.83,-314.374 1730.91,-299.435"/>
<polygon fill="black" stroke="black" points="1732.19,-302.694 1740.42,-296.022 1729.83,-296.105 1732.19,-302.694"/>
<text text-anchor="middle" x="1256.5" y="-386.8" font-family="Times New Roman,serif" font-size="14.00">View my medical file</text>
</g>
<!-- select_doctor -->
<g id="node9" class="node"><title>select_doctor</title>
<polygon fill="#ccd1ff" stroke="#ccd1ff" points="1303,-296 1210,-296 1210,-260 1303,-260 1303,-296"/>
<text text-anchor="middle" x="1256.5" y="-274.3" font-family="Times New Roman,serif" font-size="14.00">select_doctor</text>
</g>
<!-- make_appointment&#45;&gt;select_doctor -->
<g id="edge14" class="edge"><title>make_appointment&#45;&gt;select_doctor</title>
<path fill="none" stroke="black" d="M1030.82,-248.094C1069.76,-251.64 1121.47,-256.831 1167,-263 1177.53,-264.427 1188.73,-266.158 1199.5,-267.93"/>
<polygon fill="black" stroke="black" points="1199.21,-271.431 1209.66,-269.634 1200.37,-264.528 1199.21,-271.431"/>
<text text-anchor="middle" x="1129" y="-266.8" font-family="Times New Roman,serif" font-size="14.00">Select doctor</text>
</g>
<!-- search_patient -->
<g id="node10" class="node"><title>search_patient</title>
<polygon fill="#ccd1ff" stroke="#ccd1ff" points="1570,-220 1473,-220 1473,-184 1570,-184 1570,-220"/>
<text text-anchor="middle" x="1521.5" y="-198.3" font-family="Times New Roman,serif" font-size="14.00">search_patient</text>
</g>
<!-- make_appointment&#45;&gt;search_patient -->
<g id="edge15" class="edge"><title>make_appointment&#45;&gt;search_patient</title>
<path fill="none" stroke="black" d="M1019.51,-224.854C1062.45,-209.976 1126.91,-190.1 1185,-182 1301.24,-165.793 1332.5,-173.781 1449,-188 1453.5,-188.549 1458.14,-189.219 1462.8,-189.965"/>
<polygon fill="black" stroke="black" points="1462.51,-193.468 1472.96,-191.703 1463.69,-186.568 1462.51,-193.468"/>
<text text-anchor="middle" x="1256.5" y="-185.8" font-family="Times New Roman,serif" font-size="14.00">Select patient</text>
</g>
<!-- information_submitted -->
<g id="node11" class="node"><title>information_submitted</title>
<polygon fill="#ccd1ff" stroke="#ccd1ff" points="1328,-242 1185,-242 1185,-206 1328,-206 1328,-242"/>
<text text-anchor="middle" x="1256.5" y="-220.3" font-family="Times New Roman,serif" font-size="14.00">information_submitted</text>
</g>
<!-- make_appointment&#45;&gt;information_submitted -->
<g id="edge13" class="edge"><title>make_appointment&#45;&gt;information_submitted</title>
<path fill="none" stroke="black" d="M1030.68,-232.293C1049.89,-229.337 1071.28,-226.525 1091,-225 1118.27,-222.891 1148.16,-222.22 1174.89,-222.206"/>
<polygon fill="black" stroke="black" points="1174.96,-225.706 1184.96,-222.232 1174.97,-218.706 1174.96,-225.706"/>
<text text-anchor="middle" x="1129" y="-228.8" font-family="Times New Roman,serif" font-size="14.00">Submit</text>
</g>
<!-- view_patient_schedule&#45;&gt;make_appointment -->
<g id="edge24" class="edge"><title>view_patient_schedule&#45;&gt;make_appointment</title>
<path fill="none" stroke="black" d="M2185.72,-303.154C2165.19,-305.306 2142.72,-307.456 2122,-309 1974.48,-319.996 1937.43,-324 1789.5,-324 1396.5,-324 1396.5,-324 1396.5,-324 1302.12,-324 1277.77,-322.328 1185,-305 1142.27,-297.019 1132.76,-290.062 1091,-278 1074.55,-273.25 1056.85,-268.118 1040.21,-263.287"/>
<polygon fill="black" stroke="black" points="1041.14,-259.91 1030.56,-260.482 1039.18,-266.632 1041.14,-259.91"/>
<text text-anchor="middle" x="1521.5" y="-327.8" font-family="Times New Roman,serif" font-size="14.00">Make appointment</text>
</g>
<!-- view_patient_schedule&#45;&gt;view_patient_basic_info -->
<g id="edge23" class="edge"><title>view_patient_schedule&#45;&gt;view_patient_basic_info</title>
<path fill="none" stroke="black" stroke-width="2" d="M2339.32,-300.042C2414.2,-304.815 2528.66,-312.367 2628,-320 2630.54,-320.196 2633.13,-320.397 2635.74,-320.604"/>
<polygon fill="black" stroke="black" stroke-width="2" points="2339.22,-296.529 2329.02,-299.387 2338.78,-303.515 2339.22,-296.529"/>
<polygon fill="black" stroke="black" stroke-width="2" points="2635.64,-324.107 2645.89,-321.42 2636.2,-317.13 2635.64,-324.107"/>
<text text-anchor="middle" x="2510.5" y="-323.8" font-family="Times New Roman,serif" font-size="14.00">basic info, view schdule, view medical file</text>
</g>
<!-- view_patient_medical_file&#45;&gt;view_patient_basic_info -->
<g id="edge25" class="edge"><title>view_patient_medical_file&#45;&gt;view_patient_basic_info</title>
<path fill="none" stroke="black" stroke-width="2" d="M1847.6,-299.149C1860.42,-303.061 1874.05,-306.649 1887,-309 2156.72,-357.966 2483.51,-344.912 2635.53,-334.78"/>
<polygon fill="black" stroke="black" stroke-width="2" points="1848.57,-295.784 1837.98,-296.11 1846.46,-302.459 1848.57,-295.784"/>
<polygon fill="black" stroke="black" stroke-width="2" points="2635.99,-338.257 2645.73,-334.087 2635.52,-331.273 2635.99,-338.257"/>
<text text-anchor="middle" x="2257.5" y="-347.8" font-family="Times New Roman,serif" font-size="14.00">basic info, view schdule, view medical file</text>
</g>
<!-- view_patient_medical_file&#45;&gt;view_patient_schedule -->
<g id="edge26" class="edge"><title>view_patient_medical_file&#45;&gt;view_patient_schedule</title>
<path fill="none" stroke="black" stroke-width="2" d="M1879.37,-281.271C1965.14,-284.394 2093.18,-289.055 2175.78,-292.061"/>
<polygon fill="black" stroke="black" stroke-width="2" points="1879.37,-277.769 1869.25,-280.903 1879.12,-284.765 1879.37,-277.769"/>
<polygon fill="black" stroke="black" stroke-width="2" points="2175.75,-295.563 2185.87,-292.429 2176,-288.567 2175.75,-295.563"/>
<text text-anchor="middle" x="2004.5" y="-293.8" font-family="Times New Roman,serif" font-size="14.00">basic info, view schdule, view medical file</text>
</g>
<!-- patient_register -->
<g id="node7" class="node"><title>patient_register</title>
<polygon fill="#ccd1ff" stroke="#ccd1ff" points="101,-431 0,-431 0,-395 101,-395 101,-431"/>
<text text-anchor="middle" x="50.5" y="-409.3" font-family="Times New Roman,serif" font-size="14.00">patient_register</text>
</g>
<!-- patient_login -->
<g id="node8" class="node"><title>patient_login</title>
<polygon fill="#ccd1ff" stroke="#ccd1ff" points="274.5,-431 186.5,-431 186.5,-395 274.5,-395 274.5,-431"/>
<text text-anchor="middle" x="230.5" y="-409.3" font-family="Times New Roman,serif" font-size="14.00">patient_login</text>
</g>
<!-- patient_register&#45;&gt;patient_login -->
<g id="edge6" class="edge"><title>patient_register&#45;&gt;patient_login</title>
<path fill="none" stroke="black" d="M101.083,-413C124.381,-413 152.195,-413 175.971,-413"/>
<polygon fill="black" stroke="black" points="176.234,-416.5 186.234,-413 176.234,-409.5 176.234,-416.5"/>
<text text-anchor="middle" x="139" y="-416.8" font-family="Times New Roman,serif" font-size="14.00">Submit</text>
</g>
<!-- patient_login&#45;&gt;patient_portal -->
<g id="edge7" class="edge"><title>patient_login&#45;&gt;patient_portal</title>
<path fill="none" stroke="black" d="M274.733,-413C326.134,-413 412.044,-413 468.491,-413"/>
<polygon fill="black" stroke="black" points="468.674,-416.5 478.673,-413 468.673,-409.5 468.674,-416.5"/>
<text text-anchor="middle" x="358.5" y="-416.8" font-family="Times New Roman,serif" font-size="14.00">Log in</text>
</g>
<!-- select_doctor&#45;&gt;search_patient -->
<g id="edge8" class="edge"><title>select_doctor&#45;&gt;search_patient</title>
<path fill="none" stroke="black" d="M1303.07,-270.126C1342.31,-262.734 1400.16,-250.366 1449,-234 1457.43,-231.174 1466.22,-227.705 1474.64,-224.104"/>
<polygon fill="black" stroke="black" points="1476.19,-227.242 1483.94,-220.01 1473.37,-220.835 1476.19,-227.242"/>
<text text-anchor="middle" x="1397.5" y="-264.8" font-family="Times New Roman,serif" font-size="14.00">Linked to patient</text>
</g>
<!-- search_patient&#45;&gt;view_patient_basic_info -->
<g id="edge10" class="edge"><title>search_patient&#45;&gt;view_patient_basic_info</title>
<path fill="none" stroke="black" d="M1570.16,-202.641C1603.68,-203.143 1649.59,-203.937 1690,-205 2108.88,-216.023 2219.51,-206.667 2628,-300 2636.93,-302.041 2646.26,-304.477 2655.42,-307.049"/>
<polygon fill="black" stroke="black" points="2654.69,-310.479 2665.26,-309.88 2656.62,-303.752 2654.69,-310.479"/>
<text text-anchor="middle" x="2004.5" y="-222.8" font-family="Times New Roman,serif" font-size="14.00">View basic info</text>
</g>
<!-- search_patient&#45;&gt;view_patient_schedule -->
<g id="edge11" class="edge"><title>search_patient&#45;&gt;view_patient_schedule</title>
<path fill="none" stroke="black" d="M1570.23,-205.873C1637.13,-211.487 1762.54,-222.682 1869,-236 1975.3,-249.299 2097.41,-268.554 2175.68,-281.41"/>
<polygon fill="black" stroke="black" points="2175.51,-284.93 2185.95,-283.102 2176.65,-278.023 2175.51,-284.93"/>
<text text-anchor="middle" x="1788.5" y="-239.8" font-family="Times New Roman,serif" font-size="14.00">View schedule</text>
</g>
<!-- search_patient&#45;&gt;view_patient_medical_file -->
<g id="edge12" class="edge"><title>search_patient&#45;&gt;view_patient_medical_file</title>
<path fill="none" stroke="black" d="M1550.77,-220.066C1563.54,-227.524 1579.09,-235.657 1594,-241 1626.97,-252.817 1664.53,-261.101 1697.73,-266.787"/>
<polygon fill="black" stroke="black" points="1697.44,-270.287 1707.88,-268.469 1698.58,-263.381 1697.44,-270.287"/>
<text text-anchor="middle" x="1642" y="-269.8" font-family="Times New Roman,serif" font-size="14.00">View medical file</text>
</g>
<!-- search_patient&#45;&gt;select_doctor -->
<g id="edge9" class="edge"><title>search_patient&#45;&gt;select_doctor</title>
<path fill="none" stroke="black" d="M1472.71,-193.535C1435.12,-189.532 1383.09,-190.126 1346,-215 1331.14,-224.964 1341.25,-238.985 1328,-251 1323.35,-255.217 1317.97,-258.802 1312.3,-261.842"/>
<polygon fill="black" stroke="black" points="1310.72,-258.717 1303.21,-266.186 1313.74,-265.033 1310.72,-258.717"/>
<text text-anchor="middle" x="1397.5" y="-218.8" font-family="Times New Roman,serif" font-size="14.00">Linked to doctor</text>
</g>
<!-- secretary_portal -->
<g id="node12" class="node"><title>secretary_portal</title>
<polygon fill="#ccd1ff" stroke="#ccd1ff" points="284,-151 177,-151 177,-115 284,-115 284,-151"/>
<text text-anchor="middle" x="230.5" y="-129.3" font-family="Times New Roman,serif" font-size="14.00">secretary_portal</text>
</g>
<!-- secretary_portal&#45;&gt;search_patient -->
<g id="edge17" class="edge"><title>secretary_portal&#45;&gt;search_patient</title>
<path fill="none" stroke="black" d="M284.158,-131.273C342.803,-129.5 440.423,-127 524.5,-127 524.5,-127 524.5,-127 1257.5,-127 1335.27,-127 1421.2,-157.707 1473,-179.824"/>
<polygon fill="black" stroke="black" points="1471.7,-183.075 1482.26,-183.845 1474.48,-176.653 1471.7,-183.075"/>
<text text-anchor="middle" x="969.5" y="-130.8" font-family="Times New Roman,serif" font-size="14.00">Search patients</text>
</g>
<!-- admin_view_doctor_schedule -->
<g id="node13" class="node"><title>admin_view_doctor_schedule</title>
<polygon fill="#ccd1ff" stroke="#ccd1ff" points="618,-244 433,-244 433,-208 618,-208 618,-244"/>
<text text-anchor="middle" x="525.5" y="-222.3" font-family="Times New Roman,serif" font-size="14.00">admin_view_doctor_schedule</text>
</g>
<!-- secretary_portal&#45;&gt;admin_view_doctor_schedule -->
<g id="edge16" class="edge"><title>secretary_portal&#45;&gt;admin_view_doctor_schedule</title>
<path fill="none" stroke="black" d="M284.221,-149.734C332.924,-165.193 405.482,-188.223 458.116,-204.929"/>
<polygon fill="black" stroke="black" points="457.111,-208.282 467.701,-207.972 459.229,-201.61 457.111,-208.282"/>
<text text-anchor="middle" x="358.5" y="-194.8" font-family="Times New Roman,serif" font-size="14.00">See Schedule</text>
</g>
<!-- admin_view_doctor_schedule&#45;&gt;make_appointment -->
<g id="edge22" class="edge"><title>admin_view_doctor_schedule&#45;&gt;make_appointment</title>
<path fill="none" stroke="black" d="M618.083,-229.522C701.28,-232.722 822.259,-237.375 898.103,-240.292"/>
<polygon fill="black" stroke="black" points="898.369,-243.805 908.496,-240.692 898.638,-236.81 898.369,-243.805"/>
<text text-anchor="middle" x="742" y="-241.8" font-family="Times New Roman,serif" font-size="14.00">Make appointment</text>
</g>
<!-- admin_view_doctor_schedule&#45;&gt;select_doctor -->
<g id="edge21" class="edge"><title>admin_view_doctor_schedule&#45;&gt;select_doctor</title>
<path fill="none" stroke="black" d="M581.107,-244.002C598.472,-249.038 617.879,-253.961 636,-257 835.737,-290.5 888.545,-276.605 1091,-282 1124.77,-282.9 1133.23,-282.763 1167,-282 1177.49,-281.763 1188.67,-281.369 1199.43,-280.917"/>
<polygon fill="black" stroke="black" points="1199.74,-284.407 1209.58,-280.47 1199.44,-277.413 1199.74,-284.407"/>
<text text-anchor="middle" x="969.5" y="-285.8" font-family="Times New Roman,serif" font-size="14.00">Select doctor</text>
</g>
<!-- doctor_portal -->
<g id="node14" class="node"><title>doctor_portal</title>
<polygon fill="#ccd1ff" stroke="#ccd1ff" points="277.5,-82 183.5,-82 183.5,-46 277.5,-46 277.5,-82"/>
<text text-anchor="middle" x="230.5" y="-60.3" font-family="Times New Roman,serif" font-size="14.00">doctor_portal</text>
</g>
<!-- doctor_portal&#45;&gt;search_patient -->
<g id="edge20" class="edge"><title>doctor_portal&#45;&gt;search_patient</title>
<path fill="none" stroke="black" d="M277.68,-64C335.412,-64 437.261,-64 524.5,-64 524.5,-64 524.5,-64 1257.5,-64 1348.12,-64 1372,-86.2196 1449,-134 1467.55,-145.508 1485.34,-162.404 1498.54,-176.475"/>
<polygon fill="black" stroke="black" points="1496.04,-178.931 1505.37,-183.949 1501.21,-174.207 1496.04,-178.931"/>
<text text-anchor="middle" x="969.5" y="-67.8" font-family="Times New Roman,serif" font-size="14.00">Search patients</text>
</g>
<!-- doctor_portal&#45;&gt;admin_view_doctor_schedule -->
<g id="edge18" class="edge"><title>doctor_portal&#45;&gt;admin_view_doctor_schedule</title>
<path fill="none" stroke="black" d="M277.78,-78.0502C316.003,-90.6613 370.937,-111.15 415,-137 445.728,-155.027 476.879,-181.292 498.058,-200.619"/>
<polygon fill="black" stroke="black" points="495.947,-203.434 505.665,-207.655 500.7,-198.296 495.947,-203.434"/>
<text text-anchor="middle" x="358.5" y="-140.8" font-family="Times New Roman,serif" font-size="14.00">See my schedule</text>
</g>
<!-- doctor_make_list_of_patients -->
<g id="node15" class="node"><title>doctor_make_list_of_patients</title>
<polygon fill="#ccd1ff" stroke="#ccd1ff" points="617.5,-36 433.5,-36 433.5,-0 617.5,-0 617.5,-36"/>
<text text-anchor="middle" x="525.5" y="-14.3" font-family="Times New Roman,serif" font-size="14.00">doctor_make_list_of_patients</text>
</g>
<!-- doctor_portal&#45;&gt;doctor_make_list_of_patients -->
<g id="edge19" class="edge"><title>doctor_portal&#45;&gt;doctor_make_list_of_patients</title>
<path fill="none" stroke="black" d="M269.194,-45.9488C279.606,-41.6709 291.055,-37.6002 302,-35 341.012,-25.7317 384.848,-21.179 423.231,-19.0438"/>
<polygon fill="black" stroke="black" points="423.574,-22.531 433.383,-18.5276 423.218,-15.54 423.574,-22.531"/>
<text text-anchor="middle" x="358.5" y="-38.8" font-family="Times New Roman,serif" font-size="14.00">Make list of patients</text>
</g>
</g>
</svg>
